<svg xmlns="http://www.w3.org/2000/svg">
    <symbol id="check-circle" fill="currentColor" class="bi bi-check-circle-fill" viewBox="0 0 16 16">
        <path d="M16 8A8 8 0 1 1 0 8a8 8 0 0 1 16 0zm-3.97-3.03a.75.75 0 0 0-1.08.022L7.477 9.417 5.384 7.323a.75.75 0 0 0-1.06 1.06L6.97 11.03a.75.75 0 0 0 1.079-.02l3.992-4.99a.75.75 0 0 0-.01-1.05z"/>
    </symbol>
    <symbol id="x-circle" fill="currentColor" class="bi bi-x-circle-fill" viewBox="0 0 16 16">
        <path d="M16 8A8 8 0 1 1 0 8a8 8 0 0 1 16 0zM5.354 4.646a.5.5 0 1 0-.708.708L7.293 8l-2.647 2.646a.5.5 0 0 0 .708.708L8 8.707l2.646 2.647a.5.5 0 0 0 .708-.708L8.707 8l2.647-2.646a.5.5 0 0 0-.708-.708L8 7.293 5.354 4.646z"/>
    </symbol>
    <symbol id="arrow-counterclockwise" fill="currentColor" class="bi bi-arrow-counterclockwise" viewBox="0 0 16 16">
        <path fill-rule="evenodd" d="M8 3a5 5 0 1 1-4.546 2.914.5.5 0 0 0-.908-.417A6 6 0 1 0 8 2v1z"/>
        <path d="M8 4.466V.534a.25.25 0 0 0-.41-.192L5.23 2.308a.25.25 0 0 0 0 .384l2.36 1.966A.25.25 0 0 0 8 4.466z"/>
    </symbol>
    <symbol id="funnel-fill" fill="currentColor" class="bi bi-funnel-fill" viewBox="0 0 16 16">
        <path d="M1.5 1.5A.5.5 0 0 1 2 1h12a.5.5 0 0 1 .5.5v2a.5.5 0 0 1-.128.334L10 8.692V13.5a.5.5 0 0 1-.342.474l-3 1A.5.5 0 0 1 6 14.5V8.692L1.628 3.834A.5.5 0 0 1 1.5 3.5v-2z"/>
    </symbol>
    <symbol id="arrow-up-right" fill="currentColor" class="bi bi-box-arrow-up-right" viewBox="0 0 16 16">
        <path fill-rule="evenodd" d="M8.636 3.5a.5.5 0 0 0-.5-.5H1.5A1.5 1.5 0 0 0 0 4.5v10A1.5 1.5 0 0 0 1.5 16h10a1.5 1.5 0 0 0 1.5-1.5V7.864a.5.5 0 0 0-1 0V14.5a.5.5 0 0 1-.5.5h-10a.5.5 0 0 1-.5-.5v-10a.5.5 0 0 1 .5-.5h6.636a.5.5 0 0 0 .5-.5z"/>
        <path fill-rule="evenodd" d="M16 .5a.5.5 0 0 0-.5-.5h-5a.5.5 0 0 0 0 1h3.793L6.146 9.146a.5.5 0 1 0 .708.708L15 1.707V5.5a.5.5 0 0 0 1 0v-5z"/>
    </symbol>
    <symbol id="caret-right-fill" fill="currentColor" class="bi bi-caret-right-fill" viewBox="0 0 16 16">
        <path d="m12.14 8.753-5.482 4.796c-.646.566-1.658.106-1.658-.753V3.204a1 1 0 0 1 1.659-.753l5.48 4.796a1 1 0 0 1 0 1.506z"/>
    </symbol>
    <symbol id="caret-left-fill" fill="currentColor" class="bi bi-caret-left-fill" viewBox="0 0 16 16">
        <path d="m3.86 8.753 5.482 4.796c.646.566 1.658.106 1.658-.753V3.204a1 1 0 0 0-1.659-.753l-5.48 4.796a1 1 0 0 0 0 1.506z"/>
    </symbol>
    <symbol id="check" fill="currentColor" class="bi bi-check" viewBox="0 0 16 16">
        <path d="M10.97 4.97a.75.75 0 0 1 1.07 1.05l-3.99 4.99a.75.75 0 0 1-1.08.02L4.324 8.384a.75.75 0 1 1 1.06-1.06l2.094 2.093 3.473-4.425a.267.267 0 0 1 .02-.022z"/>
    </symbol>
</svg>