<svg xmlns="http://www.w3.org/2000/svg">
    <symbol id="check-circle" fill="currentColor" class="bi bi-check-circle-fill" viewBox="0 0 16 16">
        <path d="M16 8A8 8 0 1 1 0 8a8 8 0 0 1 16 0zm-3.97-3.03a.75.75 0 0 0-1.08.022L7.477 9.417 5.384 7.323a.75.75 0 0 0-1.06 1.06L6.97 11.03a.75.75 0 0 0 1.079-.02l3.992-4.99a.75.75 0 0 0-.01-1.05z"/>
    </symbol>
    <symbol id="x-circle" fill="currentColor" class="bi bi-x-circle-fill" viewBox="0 0 16 16">
        <path d="M16 8A8 8 0 1 1 0 8a8 8 0 0 1 16 0zM5.354 4.646a.5.5 0 1 0-.708.708L7.293 8l-2.647 2.646a.5.5 0 0 0 .708.708L8 8.707l2.646 2.647a.5.5 0 0 0 .708-.708L8.707 8l2.647-2.646a.5.5 0 0 0-.708-.708L8 7.293 5.354 4.646z"/>
    </symbol>
    <symbol id="arrow-counterclockwise" fill="currentColor" class="bi bi-arrow-counterclockwise" viewBox="0 0 16 16">
        <path fill-rule="evenodd" d="M8 3a5 5 0 1 1-4.546 2.914.5.5 0 0 0-.908-.417A6 6 0 1 0 8 2v1z"/>
        <path d="M8 4.466V.534a.25.25 0 0 0-.41-.192L5.23 2.308a.25.25 0 0 0 0 .384l2.36 1.966A.25.25 0 0 0 8 4.466z"/>
    </symbol>
    <symbol id="funnel-fill" fill="currentColor" class="bi bi-funnel-fill" viewBox="0 0 16 16">
        <path d="M1.5 1.5A.5.5 0 0 1 2 1h12a.5.5 0 0 1 .5.5v2a.5.5 0 0 1-.128.334L10 8.692V13.5a.5.5 0 0 1-.342.474l-3 1A.5.5 0 0 1 6 14.5V8.692L1.628 3.834A.5.5 0 0 1 1.5 3.5v-2z"/>
    </symbol>
    <symbol id="arrow-up-right" fill="currentColor" class="bi bi-box-arrow-up-right" viewBox="0 0 16 16">
        <path fill-rule="evenodd" d="M8.636 3.5a.5.5 0 0 0-.5-.5H1.5A1.5 1.5 0 0 0 0 4.5v10A1.5 1.5 0 0 0 1.5 16h10a1.5 1.5 0 0 0 1.5-1.5V7.864a.5.5 0 0 0-1 0V14.5a.5.5 0 0 1-.5.5h-10a.5.5 0 0 1-.5-.5v-10a.5.5 0 0 1 .5-.5h6.636a.5.5 0 0 0 .5-.5z"/>
        <path fill-rule="evenodd" d="M16 .5a.5.5 0 0 0-.5-.5h-5a.5.5 0 0 0 0 1h3.793L6.146 9.146a.5.5 0 1 0 .708.708L15 1.707V5.5a.5.5 0 0 0 1 0v-5z"/>
    </symbol>
    <symbol id="caret-right-fill" fill="currentColor" class="bi bi-caret-right-fill" viewBox="0 0 16 16">
        <path d="m12.14 8.753-5.482 4.796c-.646.566-1.658.106-1.658-.753V3.204a1 1 0 0 1 1.659-.753l5.48 4.796a1 1 0 0 1 0 1.506z"/>
    </symbol>
    <symbol id="caret-left-fill" fill="currentColor" class="bi bi-caret-left-fill" viewBox="0 0 16 16">
        <path d="m3.86 8.753 5.482 4.796c.646.566 1.658.106 1.658-.753V3.204a1 1 0 0 0-1.659-.753l-5.48 4.796a1 1 0 0 0 0 1.506z"/>
    </symbol>
    <svg id="chevron-down" fill="currentColor" class="bi bi-chevron-down" viewBox="0 0 16 16">
        <path fill-rule="evenodd" d="M1.646 4.646a.5.5 0 0 1 .708 0L8 10.293l5.646-5.647a.5.5 0 0 1 .708.708l-6 6a.5.5 0 0 1-.708 0l-6-6a.5.5 0 0 1 0-.708z"/>
    </svg>
    <symbol id="check" fill="currentColor" class="bi bi-check" viewBox="0 0 16 16">
        <path d="M10.97 4.97a.75.75 0 0 1 1.07 1.05l-3.99 4.99a.75.75 0 0 1-1.08.02L4.324 8.384a.75.75 0 1 1 1.06-1.06l2.094 2.093 3.473-4.425a.267.267 0 0 1 .02-.022z"/>
    </symbol>
    <symbol id="download" fill="currentColor" class="bi bi-download" viewBox="0 0 16 16">
        <path d="M.5 9.9a.5.5 0 0 1 .5.5v2.5a1 1 0 0 0 1 1h12a1 1 0 0 0 1-1v-2.5a.5.5 0 0 1 1 0v2.5a2 2 0 0 1-2 2H2a2 2 0 0 1-2-2v-2.5a.5.5 0 0 1 .5-.5z"/>
        <path d="M7.646 11.854a.5.5 0 0 0 .708 0l3-3a.5.5 0 0 0-.708-.708L8.5 10.293V1.5a.5.5 0 0 0-1 0v8.793L5.354 8.146a.5.5 0 1 0-.708.708l3 3z"/>
    </symbol>
    <symbol id="delete-archive" fill="currentColor" class="bi bi-file-earmark-x-fill" viewBox="0 0 16 16">
        <path d="M9.293 0H4a2 2 0 0 0-2 2v12a2 2 0 0 0 2 2h8a2 2 0 0 0 2-2V4.707A1 1 0 0 0 13.707 4L10 .293A1 1 0 0 0 9.293 0zM9.5 3.5v-2l3 3h-2a1 1 0 0 1-1-1zM6.854 7.146 8 8.293l1.146-1.147a.5.5 0 1 1 .708.708L8.707 9l1.147 1.146a.5.5 0 0 1-.708.708L8 9.707l-1.146 1.147a.5.5 0 0 1-.708-.708L7.293 9 6.146 7.854a.5.5 0 1 1 .708-.708z"/>
    </symbol>
    <symbol id="save" fill="currentColor" class="bi bi-save-fill" viewBox="0 0 16 16">
        <path d="M8.5 1.5A1.5 1.5 0 0 1 10 0h4a2 2 0 0 1 2 2v12a2 2 0 0 1-2 2H2a2 2 0 0 1-2-2V2a2 2 0 0 1 2-2h6c-.314.418-.5.937-.5 1.5v7.793L4.854 6.646a.5.5 0 1 0-.708.708l3.5 3.5a.5.5 0 0 0 .708 0l3.5-3.5a.5.5 0 0 0-.708-.708L8.5 9.293V1.5z"/>
    </symbol>
    <symbol id="delete-unsaved" fill="currentColor" class="bi bi-x-square-fill" viewBox="0 0 16 16">
        <path d="M2 0a2 2 0 0 0-2 2v12a2 2 0 0 0 2 2h12a2 2 0 0 0 2-2V2a2 2 0 0 0-2-2H2zm3.354 4.646L8 7.293l2.646-2.647a.5.5 0 0 1 .708.708L8.707 8l2.647 2.646a.5.5 0 0 1-.708.708L8 8.707l-2.646 2.647a.5.5 0 0 1-.708-.708L7.293 8 4.646 5.354a.5.5 0 1 1 .708-.708z"/>
    </symbol>
</svg>