<?xml version="1.0" encoding="utf-8"?>
<!-- Generator: Adobe Illustrator 12.0.0, SVG Export Plug-In . SVG Version: 6.00 Build 51448)  -->
<!DOCTYPE svg PUBLIC "-//W3C//DTD SVG 1.1//EN" "http://www.w3.org/Graphics/SVG/1.1/DTD/svg11.dtd" [
	<!ENTITY ns_svg "http://www.w3.org/2000/svg">
	<!ENTITY ns_xlink "http://www.w3.org/1999/xlink">
]>
<svg  version="1.1" id="Ebene_1" xmlns="&ns_svg;" xmlns:xlink="&ns_xlink;" width="14.351" height="17.723"
	 viewBox="0 0 14.351 17.723" overflow="visible" enable-background="new 0 0 14.351 17.723" xml:space="preserve">
<path fill="#084298" d="M11,8.77c0,0.276,0.224,0.5,0.5,0.5S12,9.046,12,8.77V4.5L7.5,0H2C0.896,0,0,0.896,0,2v12
	c0,1.104,0.896,2,2,2l2.524,0.012c1.104,0,2-0.895,2-2l0.017-6.747l1.146,1.146c0.195,0.195,0.512,0.195,0.707,0
	c0.195-0.194,0.195-0.511,0-0.706l-1.998-2c0,0,0,0,0-0.002C6.202,5.51,5.885,5.51,5.69,5.705l-1.999,2
	c-0.195,0.195-0.195,0.512,0,0.706c0.195,0.195,0.512,0.195,0.708,0l1.145-1.146l-0.02,6.747c0,0.553-0.447,1-1,1L2,15
	c-0.552,0-1-0.447-1-1V2c0-0.552,0.448-1,1-1h5.5v2c0,0.829,0.672,1.5,1.5,1.5h2V8.77z"/>
<path fill="#343A40" d="M12.318,10.104l-0.84-0.435l-0.841,0.435l-0.936,0.143l-0.424,0.846l-0.673,0.664L8.76,12.69l-0.154,0.934
	l0.673,0.664l0.424,0.846l0.936,0.143l0.841,0.434l0.84-0.434l0.936-0.143l0.424-0.846l0.673-0.664l-0.154-0.934l0.154-0.934
	l-0.673-0.664l-0.424-0.846L12.318,10.104z M12.921,10.704l0.344,0.688l0.547,0.541l-0.125,0.758l0.125,0.758l-0.547,0.539
	l-0.344,0.688L12.16,14.79l-0.682,0.354l-0.683-0.354l-0.761-0.115l-0.344-0.688l-0.547-0.539L9.27,12.69l-0.126-0.758l0.548-0.541
	l0.344-0.688l0.761-0.115l0.683-0.354l0.682,0.354L12.921,10.704z"/>
<path fill="#343A40" d="M9.464,15.606v2.117l2.015-0.502l2.014,0.502v-2.117l-1.017,0.154l-0.997,0.518L10.48,15.76L9.464,15.606z"
	/>
</svg>
